<mxfile host="app.diagrams.net" modified="2021-10-23T03:28:08.205Z" agent="5.0 (Windows NT 10.0; Win64; x64) AppleWebKit/537.36 (KHTML, like Gecko) Chrome/95.0.4638.54 Safari/537.36" etag="l-X-HvzBLVE4OJwc_s9K" version="15.5.8" type="github">
  <diagram id="1Cw2svOl_KgqkaIp11d7" name="Página-1">
    <mxGraphModel dx="1689" dy="464" grid="1" gridSize="10" guides="1" tooltips="1" connect="1" arrows="1" fold="1" page="1" pageScale="1" pageWidth="827" pageHeight="1169" math="0" shadow="0">
      <root>
        <mxCell id="0" />
        <mxCell id="1" parent="0" />
        <mxCell id="_IgYuJ2zgJNjSA36EEnD-1" value="&lt;font style=&quot;font-size: 24px&quot; face=&quot;Comic Sans MS&quot;&gt;Sistema de Agenda para Barbearia&lt;/font&gt;" style="rounded=0;whiteSpace=wrap;html=1;fillColor=#CC99FF;strokeColor=#9673a6;sketch=1;" parent="1" vertex="1">
          <mxGeometry x="300" width="240" height="60" as="geometry" />
        </mxCell>
        <mxCell id="_IgYuJ2zgJNjSA36EEnD-31" value="User History" style="swimlane;fontFamily=Comic Sans MS;fontSize=16;startSize=20;fillColor=#e1d5e7;strokeColor=#9673a6;rounded=0;sketch=1;" parent="1" vertex="1">
          <mxGeometry x="40" y="70" width="740" height="100" as="geometry">
            <mxRectangle x="40" y="70" width="130" height="20" as="alternateBounds" />
          </mxGeometry>
        </mxCell>
        <mxCell id="_IgYuJ2zgJNjSA36EEnD-32" value="&lt;span style=&quot;font-family: &amp;#34;montserrat&amp;#34; , sans-serif ; font-size: 14px&quot;&gt;&quot;Tenho uma barbearia com vários barbeiros, e gostaria de ter um site na internet em que os clientes possam reservar seus horários com cada barbeiro. O cliente pode se cadastrar, fazer uma reserva e cancelar sua reserva, o barbeiro também pode bloquear ou desbloquear um horário. E eu, como dono posso cadastrar novos barbeiros e bloquear ou desbloqueá-los.&quot;&lt;/span&gt;" style="whiteSpace=wrap;html=1;fontFamily=Comic Sans MS;fontSize=16;fillColor=#e1d5e7;strokeColor=#9673a6;sketch=1;" parent="_IgYuJ2zgJNjSA36EEnD-31" vertex="1">
          <mxGeometry y="20" width="740" height="80" as="geometry" />
        </mxCell>
        <mxCell id="_IgYuJ2zgJNjSA36EEnD-34" value="&lt;font style=&quot;font-size: 20px&quot;&gt;Processo de módulo de Cadastro&lt;/font&gt;" style="rounded=1;whiteSpace=wrap;html=1;fontFamily=Comic Sans MS;fontSize=16;arcSize=50;fillColor=#FFB366;strokeColor=#d79b00;sketch=1;shadow=0;glass=0;" parent="1" vertex="1">
          <mxGeometry x="318" y="200" width="192" height="60" as="geometry" />
        </mxCell>
        <mxCell id="_IgYuJ2zgJNjSA36EEnD-35" value="" style="endArrow=none;html=1;rounded=0;strokeWidth=3;" parent="1" edge="1">
          <mxGeometry width="50" height="50" relative="1" as="geometry">
            <mxPoint y="190" as="sourcePoint" />
            <mxPoint x="820" y="190" as="targetPoint" />
          </mxGeometry>
        </mxCell>
        <mxCell id="iR2uSwWQthym9iudgjQ9-1" style="edgeStyle=orthogonalEdgeStyle;rounded=0;orthogonalLoop=1;jettySize=auto;html=1;exitX=1;exitY=0.5;exitDx=0;exitDy=0;entryX=0;entryY=0.5;entryDx=0;entryDy=0;fontFamily=Comic Sans MS;fontSize=20;" edge="1" parent="1" source="_IgYuJ2zgJNjSA36EEnD-38" target="_IgYuJ2zgJNjSA36EEnD-39">
          <mxGeometry relative="1" as="geometry" />
        </mxCell>
        <mxCell id="_IgYuJ2zgJNjSA36EEnD-38" value="Dados do cadastro de usuário enviados" style="rounded=0;whiteSpace=wrap;html=1;fontFamily=Comic Sans MS;fontSize=16;" parent="1" vertex="1">
          <mxGeometry y="280" width="200" height="40" as="geometry" />
        </mxCell>
        <mxCell id="iR2uSwWQthym9iudgjQ9-2" style="edgeStyle=orthogonalEdgeStyle;rounded=0;orthogonalLoop=1;jettySize=auto;html=1;exitX=1;exitY=0.5;exitDx=0;exitDy=0;entryX=0;entryY=0.5;entryDx=0;entryDy=0;fontFamily=Comic Sans MS;fontSize=20;" edge="1" parent="1" source="_IgYuJ2zgJNjSA36EEnD-39" target="_IgYuJ2zgJNjSA36EEnD-40">
          <mxGeometry relative="1" as="geometry" />
        </mxCell>
        <mxCell id="_IgYuJ2zgJNjSA36EEnD-39" value="Dados salvos&lt;br&gt;no sistema" style="rounded=0;whiteSpace=wrap;html=1;fontFamily=Comic Sans MS;fontSize=16;" parent="1" vertex="1">
          <mxGeometry x="230" y="280" width="160" height="40" as="geometry" />
        </mxCell>
        <mxCell id="iR2uSwWQthym9iudgjQ9-3" style="edgeStyle=orthogonalEdgeStyle;rounded=0;orthogonalLoop=1;jettySize=auto;html=1;exitX=1;exitY=0.5;exitDx=0;exitDy=0;entryX=0;entryY=0.5;entryDx=0;entryDy=0;fontFamily=Comic Sans MS;fontSize=20;" edge="1" parent="1" source="_IgYuJ2zgJNjSA36EEnD-40" target="_IgYuJ2zgJNjSA36EEnD-41">
          <mxGeometry relative="1" as="geometry" />
        </mxCell>
        <mxCell id="_IgYuJ2zgJNjSA36EEnD-40" value="Confirmação de e-mail enviado para usuário" style="rounded=0;whiteSpace=wrap;html=1;fontFamily=Comic Sans MS;fontSize=16;" parent="1" vertex="1">
          <mxGeometry x="414" y="280" width="200" height="40" as="geometry" />
        </mxCell>
        <mxCell id="_IgYuJ2zgJNjSA36EEnD-41" value="Confirmação aceita pelo usuário" style="rounded=0;whiteSpace=wrap;html=1;fontFamily=Comic Sans MS;fontSize=16;" parent="1" vertex="1">
          <mxGeometry x="640" y="280" width="160" height="40" as="geometry" />
        </mxCell>
        <mxCell id="iR2uSwWQthym9iudgjQ9-4" value="&lt;font style=&quot;font-size: 20px&quot;&gt;Arquitetura de Software&lt;/font&gt;" style="rounded=1;whiteSpace=wrap;html=1;shadow=0;glass=0;sketch=1;fontFamily=Comic Sans MS;fontSize=20;fillColor=#99FFFF;arcSize=50;strokeColor=#0e8088;" vertex="1" parent="1">
          <mxGeometry x="335" y="360" width="150" height="50" as="geometry" />
        </mxCell>
        <mxCell id="iR2uSwWQthym9iudgjQ9-5" value="" style="endArrow=none;html=1;rounded=0;strokeWidth=3;" edge="1" parent="1">
          <mxGeometry width="50" height="50" relative="1" as="geometry">
            <mxPoint y="340" as="sourcePoint" />
            <mxPoint x="820" y="340" as="targetPoint" />
          </mxGeometry>
        </mxCell>
        <mxCell id="iR2uSwWQthym9iudgjQ9-6" value="" style="curved=1;endArrow=classic;html=1;rounded=0;fontFamily=Comic Sans MS;fontSize=20;entryX=1;entryY=0;entryDx=0;entryDy=0;exitX=0;exitY=0.25;exitDx=0;exitDy=0;" edge="1" parent="1" source="_IgYuJ2zgJNjSA36EEnD-34" target="_IgYuJ2zgJNjSA36EEnD-38">
          <mxGeometry width="50" height="50" relative="1" as="geometry">
            <mxPoint x="320" y="220" as="sourcePoint" />
            <mxPoint x="80" y="260" as="targetPoint" />
            <Array as="points">
              <mxPoint x="170" y="190" />
              <mxPoint x="220" y="270" />
            </Array>
          </mxGeometry>
        </mxCell>
        <mxCell id="iR2uSwWQthym9iudgjQ9-7" style="edgeStyle=none;rounded=0;orthogonalLoop=1;jettySize=auto;html=1;exitX=1;exitY=0.75;exitDx=0;exitDy=0;fontFamily=Comic Sans MS;fontSize=12;entryX=0.5;entryY=0;entryDx=0;entryDy=0;" edge="1" parent="1" target="iR2uSwWQthym9iudgjQ9-18" source="iR2uSwWQthym9iudgjQ9-4">
          <mxGeometry relative="1" as="geometry">
            <mxPoint x="590" y="430" as="targetPoint" />
            <mxPoint x="570" y="410" as="sourcePoint" />
          </mxGeometry>
        </mxCell>
        <mxCell id="iR2uSwWQthym9iudgjQ9-8" style="edgeStyle=none;rounded=0;orthogonalLoop=1;jettySize=auto;html=1;exitX=0;exitY=0.75;exitDx=0;exitDy=0;fontFamily=Comic Sans MS;fontSize=18;" edge="1" parent="1" source="iR2uSwWQthym9iudgjQ9-4">
          <mxGeometry relative="1" as="geometry">
            <mxPoint x="240" y="440" as="targetPoint" />
            <mxPoint x="240" y="410" as="sourcePoint" />
          </mxGeometry>
        </mxCell>
        <mxCell id="iR2uSwWQthym9iudgjQ9-9" style="edgeStyle=none;rounded=0;orthogonalLoop=1;jettySize=auto;html=1;exitX=0.5;exitY=1;exitDx=0;exitDy=0;fontFamily=Comic Sans MS;fontSize=12;" edge="1" parent="1">
          <mxGeometry relative="1" as="geometry">
            <mxPoint x="240" y="500" as="targetPoint" />
            <mxPoint x="240" y="470" as="sourcePoint" />
          </mxGeometry>
        </mxCell>
        <mxCell id="iR2uSwWQthym9iudgjQ9-11" style="edgeStyle=none;rounded=0;orthogonalLoop=1;jettySize=auto;html=1;exitX=0.5;exitY=1;exitDx=0;exitDy=0;fontFamily=Comic Sans MS;fontSize=12;" edge="1" parent="1" source="iR2uSwWQthym9iudgjQ9-12">
          <mxGeometry relative="1" as="geometry">
            <mxPoint x="240" y="570" as="targetPoint" />
          </mxGeometry>
        </mxCell>
        <mxCell id="iR2uSwWQthym9iudgjQ9-12" value="Informações de contato" style="rounded=0;whiteSpace=wrap;html=1;fontFamily=Comic Sans MS;fontSize=12;" vertex="1" parent="1">
          <mxGeometry x="140" y="500" width="200" height="30" as="geometry" />
        </mxCell>
        <mxCell id="iR2uSwWQthym9iudgjQ9-18" value="&lt;span&gt;Camada de serviço&lt;br&gt;&lt;/span&gt;" style="rounded=0;whiteSpace=wrap;html=1;fontFamily=Comic Sans MS;fontSize=12;" vertex="1" parent="1">
          <mxGeometry x="480" y="440" width="180" height="30" as="geometry" />
        </mxCell>
        <mxCell id="iR2uSwWQthym9iudgjQ9-19" value="&lt;font style=&quot;font-size: 12px&quot;&gt;Camada do cliente&lt;/font&gt;" style="rounded=0;whiteSpace=wrap;html=1;shadow=0;glass=0;sketch=0;fontFamily=Comic Sans MS;fontSize=20;fillColor=default;" vertex="1" parent="1">
          <mxGeometry x="138" y="440" width="200" height="30" as="geometry" />
        </mxCell>
        <mxCell id="iR2uSwWQthym9iudgjQ9-20" value="Banco de Dados" style="shape=cylinder3;whiteSpace=wrap;html=1;boundedLbl=1;backgroundOutline=1;size=18;shadow=0;glass=0;sketch=0;fontFamily=Comic Sans MS;fontSize=12;fillColor=default;" vertex="1" parent="1">
          <mxGeometry x="530" y="500" width="80" height="80" as="geometry" />
        </mxCell>
        <mxCell id="iR2uSwWQthym9iudgjQ9-21" style="edgeStyle=none;rounded=0;orthogonalLoop=1;jettySize=auto;html=1;exitX=0.5;exitY=1;exitDx=0;exitDy=0;fontFamily=Comic Sans MS;fontSize=12;" edge="1" parent="1">
          <mxGeometry relative="1" as="geometry">
            <mxPoint x="570" y="500" as="targetPoint" />
            <mxPoint x="570" y="470" as="sourcePoint" />
            <Array as="points" />
          </mxGeometry>
        </mxCell>
        <mxCell id="iR2uSwWQthym9iudgjQ9-22" value="Persistência" style="text;html=1;strokeColor=none;fillColor=none;align=center;verticalAlign=middle;whiteSpace=wrap;rounded=0;shadow=0;glass=0;sketch=0;fontFamily=Comic Sans MS;fontSize=12;" vertex="1" parent="1">
          <mxGeometry x="540" y="500" width="60" height="30" as="geometry" />
        </mxCell>
        <mxCell id="iR2uSwWQthym9iudgjQ9-23" value="Contato com o serviço" style="rounded=0;whiteSpace=wrap;html=1;shadow=0;glass=0;sketch=0;fontFamily=Comic Sans MS;fontSize=12;fillColor=default;" vertex="1" parent="1">
          <mxGeometry x="170" y="575" width="140" height="20" as="geometry" />
        </mxCell>
        <mxCell id="iR2uSwWQthym9iudgjQ9-25" value="Contato com cliente" style="rounded=0;whiteSpace=wrap;html=1;shadow=0;glass=0;sketch=0;fontFamily=Comic Sans MS;fontSize=12;fillColor=default;" vertex="1" parent="1">
          <mxGeometry x="600" y="640" width="120" height="20" as="geometry" />
        </mxCell>
        <mxCell id="iR2uSwWQthym9iudgjQ9-26" value="Envio do e-mail" style="rounded=0;whiteSpace=wrap;html=1;shadow=0;glass=0;sketch=0;fontFamily=Comic Sans MS;fontSize=12;fillColor=default;" vertex="1" parent="1">
          <mxGeometry x="400" y="600" width="120" height="20" as="geometry" />
        </mxCell>
        <mxCell id="iR2uSwWQthym9iudgjQ9-34" style="edgeStyle=orthogonalEdgeStyle;rounded=0;orthogonalLoop=1;jettySize=auto;html=1;exitX=0.75;exitY=1;exitDx=0;exitDy=0;entryX=0.5;entryY=0;entryDx=0;entryDy=0;fontFamily=Comic Sans MS;fontSize=12;" edge="1" parent="1" source="iR2uSwWQthym9iudgjQ9-28" target="iR2uSwWQthym9iudgjQ9-25">
          <mxGeometry relative="1" as="geometry" />
        </mxCell>
        <mxCell id="iR2uSwWQthym9iudgjQ9-28" value="Regra de negócio" style="rounded=0;whiteSpace=wrap;html=1;shadow=0;glass=0;sketch=0;fontFamily=Comic Sans MS;fontSize=12;fillColor=default;" vertex="1" parent="1">
          <mxGeometry x="680" y="560" width="120" height="20" as="geometry" />
        </mxCell>
        <mxCell id="iR2uSwWQthym9iudgjQ9-29" value="" style="curved=1;endArrow=classic;html=1;rounded=0;fontFamily=Comic Sans MS;fontSize=12;exitX=0;exitY=0.5;exitDx=0;exitDy=0;exitPerimeter=0;" edge="1" parent="1" source="iR2uSwWQthym9iudgjQ9-20">
          <mxGeometry width="50" height="50" relative="1" as="geometry">
            <mxPoint x="520" y="520" as="sourcePoint" />
            <mxPoint x="440" y="600" as="targetPoint" />
            <Array as="points">
              <mxPoint x="490" y="530" />
              <mxPoint x="500" y="580" />
              <mxPoint x="430" y="550" />
            </Array>
          </mxGeometry>
        </mxCell>
        <mxCell id="iR2uSwWQthym9iudgjQ9-32" value="" style="curved=1;endArrow=classic;html=1;rounded=0;fontFamily=Comic Sans MS;fontSize=12;exitX=0.855;exitY=1;exitDx=0;exitDy=-5.22;exitPerimeter=0;entryX=0.25;entryY=0;entryDx=0;entryDy=0;" edge="1" parent="1" source="iR2uSwWQthym9iudgjQ9-20" target="iR2uSwWQthym9iudgjQ9-28">
          <mxGeometry width="50" height="50" relative="1" as="geometry">
            <mxPoint x="640" y="570" as="sourcePoint" />
            <mxPoint x="690" y="520" as="targetPoint" />
            <Array as="points">
              <mxPoint x="650" y="600" />
              <mxPoint x="630" y="510" />
              <mxPoint x="700" y="520" />
            </Array>
          </mxGeometry>
        </mxCell>
        <mxCell id="iR2uSwWQthym9iudgjQ9-35" value="" style="endArrow=none;html=1;rounded=0;strokeWidth=3;" edge="1" parent="1">
          <mxGeometry width="50" height="50" relative="1" as="geometry">
            <mxPoint y="680" as="sourcePoint" />
            <mxPoint x="820" y="680" as="targetPoint" />
          </mxGeometry>
        </mxCell>
        <mxCell id="iR2uSwWQthym9iudgjQ9-66" style="edgeStyle=orthogonalEdgeStyle;rounded=0;orthogonalLoop=1;jettySize=auto;html=1;exitX=0.5;exitY=1;exitDx=0;exitDy=0;entryX=0.442;entryY=-0.133;entryDx=0;entryDy=0;entryPerimeter=0;fontFamily=Comic Sans MS;fontSize=12;fontColor=#000000;strokeWidth=1;" edge="1" parent="1" source="iR2uSwWQthym9iudgjQ9-37" target="iR2uSwWQthym9iudgjQ9-48">
          <mxGeometry relative="1" as="geometry" />
        </mxCell>
        <mxCell id="iR2uSwWQthym9iudgjQ9-67" style="edgeStyle=orthogonalEdgeStyle;rounded=0;orthogonalLoop=1;jettySize=auto;html=1;exitX=1;exitY=1;exitDx=0;exitDy=0;entryX=0;entryY=0;entryDx=0;entryDy=0;fontFamily=Comic Sans MS;fontSize=12;fontColor=#000000;strokeWidth=1;" edge="1" parent="1" source="iR2uSwWQthym9iudgjQ9-37" target="iR2uSwWQthym9iudgjQ9-50">
          <mxGeometry relative="1" as="geometry" />
        </mxCell>
        <mxCell id="iR2uSwWQthym9iudgjQ9-68" style="edgeStyle=orthogonalEdgeStyle;rounded=0;orthogonalLoop=1;jettySize=auto;html=1;exitX=0;exitY=1;exitDx=0;exitDy=0;entryX=1;entryY=0;entryDx=0;entryDy=0;fontFamily=Comic Sans MS;fontSize=12;fontColor=#000000;strokeWidth=1;" edge="1" parent="1" source="iR2uSwWQthym9iudgjQ9-37" target="iR2uSwWQthym9iudgjQ9-38">
          <mxGeometry relative="1" as="geometry" />
        </mxCell>
        <mxCell id="iR2uSwWQthym9iudgjQ9-37" value="&lt;font style=&quot;font-size: 20px&quot;&gt;Modelo do Sistema&lt;/font&gt;" style="rounded=1;whiteSpace=wrap;html=1;shadow=0;glass=0;labelBackgroundColor=none;sketch=1;fontFamily=Comic Sans MS;fontSize=12;strokeColor=#FF3333;fillColor=#FF6666;arcSize=50;" vertex="1" parent="1">
          <mxGeometry x="354" y="700" width="126" height="60" as="geometry" />
        </mxCell>
        <mxCell id="iR2uSwWQthym9iudgjQ9-52" style="edgeStyle=orthogonalEdgeStyle;rounded=0;orthogonalLoop=1;jettySize=auto;html=1;exitX=0.5;exitY=1;exitDx=0;exitDy=0;entryX=0.5;entryY=0;entryDx=0;entryDy=0;fontFamily=Comic Sans MS;fontSize=12;fontColor=#000000;strokeWidth=1;" edge="1" parent="1" source="iR2uSwWQthym9iudgjQ9-38" target="iR2uSwWQthym9iudgjQ9-40">
          <mxGeometry relative="1" as="geometry" />
        </mxCell>
        <mxCell id="iR2uSwWQthym9iudgjQ9-38" value="&lt;font style=&quot;font-size: 12px&quot;&gt;Interface do usuário&lt;/font&gt;" style="rounded=0;whiteSpace=wrap;html=1;shadow=0;glass=0;labelBackgroundColor=none;sketch=0;fontFamily=Comic Sans MS;fontSize=20;fontColor=#000000;strokeColor=default;fillColor=default;" vertex="1" parent="1">
          <mxGeometry x="160" y="800" width="120" height="30" as="geometry" />
        </mxCell>
        <mxCell id="iR2uSwWQthym9iudgjQ9-53" style="edgeStyle=orthogonalEdgeStyle;rounded=0;orthogonalLoop=1;jettySize=auto;html=1;exitX=0.5;exitY=1;exitDx=0;exitDy=0;entryX=0.5;entryY=0;entryDx=0;entryDy=0;fontFamily=Comic Sans MS;fontSize=12;fontColor=#000000;strokeWidth=1;" edge="1" parent="1" source="iR2uSwWQthym9iudgjQ9-40" target="iR2uSwWQthym9iudgjQ9-42">
          <mxGeometry relative="1" as="geometry" />
        </mxCell>
        <mxCell id="iR2uSwWQthym9iudgjQ9-40" value="Reserva de horários" style="rounded=0;whiteSpace=wrap;html=1;shadow=0;glass=0;labelBackgroundColor=none;sketch=0;fontFamily=Comic Sans MS;fontSize=12;fontColor=#000000;strokeColor=default;fillColor=default;" vertex="1" parent="1">
          <mxGeometry x="160" y="860" width="120" height="30" as="geometry" />
        </mxCell>
        <mxCell id="iR2uSwWQthym9iudgjQ9-54" style="edgeStyle=orthogonalEdgeStyle;rounded=0;orthogonalLoop=1;jettySize=auto;html=1;exitX=0.5;exitY=1;exitDx=0;exitDy=0;entryX=0.5;entryY=0;entryDx=0;entryDy=0;fontFamily=Comic Sans MS;fontSize=12;fontColor=#000000;strokeWidth=1;" edge="1" parent="1" source="iR2uSwWQthym9iudgjQ9-42" target="iR2uSwWQthym9iudgjQ9-43">
          <mxGeometry relative="1" as="geometry" />
        </mxCell>
        <mxCell id="iR2uSwWQthym9iudgjQ9-42" value="Apresentação de produtos do salão" style="rounded=0;whiteSpace=wrap;html=1;shadow=0;glass=0;labelBackgroundColor=none;sketch=0;fontFamily=Comic Sans MS;fontSize=12;fontColor=#000000;strokeColor=default;fillColor=default;" vertex="1" parent="1">
          <mxGeometry x="160" y="920" width="120" height="30" as="geometry" />
        </mxCell>
        <mxCell id="iR2uSwWQthym9iudgjQ9-43" value="Módulo de venda&lt;br&gt;ao cliente" style="rounded=0;whiteSpace=wrap;html=1;shadow=0;glass=0;labelBackgroundColor=none;sketch=0;fontFamily=Comic Sans MS;fontSize=12;fontColor=#000000;strokeColor=default;fillColor=default;" vertex="1" parent="1">
          <mxGeometry x="160" y="980" width="120" height="30" as="geometry" />
        </mxCell>
        <mxCell id="iR2uSwWQthym9iudgjQ9-64" style="edgeStyle=orthogonalEdgeStyle;rounded=0;orthogonalLoop=1;jettySize=auto;html=1;exitX=0.5;exitY=1;exitDx=0;exitDy=0;entryX=0.5;entryY=0;entryDx=0;entryDy=0;fontFamily=Comic Sans MS;fontSize=12;fontColor=#000000;strokeWidth=1;" edge="1" parent="1" source="iR2uSwWQthym9iudgjQ9-44" target="iR2uSwWQthym9iudgjQ9-47">
          <mxGeometry relative="1" as="geometry" />
        </mxCell>
        <mxCell id="iR2uSwWQthym9iudgjQ9-44" value="Módulo de Compra do fornecedor" style="rounded=0;whiteSpace=wrap;html=1;shadow=0;glass=0;labelBackgroundColor=none;sketch=0;fontFamily=Comic Sans MS;fontSize=12;fontColor=#000000;strokeColor=default;fillColor=default;" vertex="1" parent="1">
          <mxGeometry x="562" y="920" width="120" height="30" as="geometry" />
        </mxCell>
        <mxCell id="iR2uSwWQthym9iudgjQ9-63" style="edgeStyle=orthogonalEdgeStyle;rounded=0;orthogonalLoop=1;jettySize=auto;html=1;exitX=0.5;exitY=1;exitDx=0;exitDy=0;entryX=0.5;entryY=0;entryDx=0;entryDy=0;fontFamily=Comic Sans MS;fontSize=12;fontColor=#000000;strokeWidth=1;" edge="1" parent="1" source="iR2uSwWQthym9iudgjQ9-46" target="iR2uSwWQthym9iudgjQ9-44">
          <mxGeometry relative="1" as="geometry" />
        </mxCell>
        <mxCell id="iR2uSwWQthym9iudgjQ9-46" value="Produtos fornecidos ao usuário" style="rounded=0;whiteSpace=wrap;html=1;shadow=0;glass=0;labelBackgroundColor=none;sketch=0;fontFamily=Comic Sans MS;fontSize=12;fontColor=#000000;strokeColor=default;fillColor=default;" vertex="1" parent="1">
          <mxGeometry x="562" y="860" width="120" height="30" as="geometry" />
        </mxCell>
        <mxCell id="iR2uSwWQthym9iudgjQ9-47" value="Entrega ao cliente" style="rounded=0;whiteSpace=wrap;html=1;shadow=0;glass=0;labelBackgroundColor=none;sketch=0;fontFamily=Comic Sans MS;fontSize=12;fontColor=#000000;strokeColor=default;fillColor=default;" vertex="1" parent="1">
          <mxGeometry x="562" y="980" width="120" height="30" as="geometry" />
        </mxCell>
        <mxCell id="iR2uSwWQthym9iudgjQ9-58" style="edgeStyle=orthogonalEdgeStyle;rounded=0;orthogonalLoop=1;jettySize=auto;html=1;exitX=0.5;exitY=1;exitDx=0;exitDy=0;entryX=0.5;entryY=0;entryDx=0;entryDy=0;fontFamily=Comic Sans MS;fontSize=12;fontColor=#000000;strokeWidth=1;" edge="1" parent="1" source="iR2uSwWQthym9iudgjQ9-48" target="iR2uSwWQthym9iudgjQ9-49">
          <mxGeometry relative="1" as="geometry" />
        </mxCell>
        <mxCell id="iR2uSwWQthym9iudgjQ9-48" value="Interface de barbeiros" style="rounded=0;whiteSpace=wrap;html=1;shadow=0;glass=0;labelBackgroundColor=none;sketch=0;fontFamily=Comic Sans MS;fontSize=12;fontColor=#000000;strokeColor=default;fillColor=default;" vertex="1" parent="1">
          <mxGeometry x="362" y="800" width="120" height="30" as="geometry" />
        </mxCell>
        <mxCell id="iR2uSwWQthym9iudgjQ9-57" style="edgeStyle=orthogonalEdgeStyle;rounded=0;orthogonalLoop=1;jettySize=auto;html=1;exitX=0.5;exitY=1;exitDx=0;exitDy=0;entryX=0.5;entryY=0;entryDx=0;entryDy=0;fontFamily=Comic Sans MS;fontSize=12;fontColor=#000000;strokeWidth=1;" edge="1" parent="1" source="iR2uSwWQthym9iudgjQ9-49" target="iR2uSwWQthym9iudgjQ9-51">
          <mxGeometry relative="1" as="geometry" />
        </mxCell>
        <mxCell id="iR2uSwWQthym9iudgjQ9-49" value="Reserva de horários dos barbeiros" style="rounded=0;whiteSpace=wrap;html=1;shadow=0;glass=0;labelBackgroundColor=none;sketch=0;fontFamily=Comic Sans MS;fontSize=12;fontColor=#000000;strokeColor=default;fillColor=default;" vertex="1" parent="1">
          <mxGeometry x="362" y="860" width="120" height="30" as="geometry" />
        </mxCell>
        <mxCell id="iR2uSwWQthym9iudgjQ9-62" style="edgeStyle=orthogonalEdgeStyle;rounded=0;orthogonalLoop=1;jettySize=auto;html=1;exitX=0.5;exitY=1;exitDx=0;exitDy=0;entryX=0.5;entryY=0;entryDx=0;entryDy=0;fontFamily=Comic Sans MS;fontSize=12;fontColor=#000000;strokeWidth=1;" edge="1" parent="1" source="iR2uSwWQthym9iudgjQ9-50" target="iR2uSwWQthym9iudgjQ9-46">
          <mxGeometry relative="1" as="geometry" />
        </mxCell>
        <mxCell id="iR2uSwWQthym9iudgjQ9-50" value="Módulo do operador" style="rounded=0;whiteSpace=wrap;html=1;shadow=0;glass=0;labelBackgroundColor=none;sketch=0;fontFamily=Comic Sans MS;fontSize=12;fontColor=#000000;strokeColor=default;fillColor=default;" vertex="1" parent="1">
          <mxGeometry x="562" y="800" width="120" height="30" as="geometry" />
        </mxCell>
        <mxCell id="iR2uSwWQthym9iudgjQ9-51" value="Confirmação do horários de clientes" style="rounded=0;whiteSpace=wrap;html=1;shadow=0;glass=0;labelBackgroundColor=none;sketch=0;fontFamily=Comic Sans MS;fontSize=12;fontColor=#000000;strokeColor=default;fillColor=default;" vertex="1" parent="1">
          <mxGeometry x="362" y="920" width="120" height="30" as="geometry" />
        </mxCell>
        <mxCell id="iR2uSwWQthym9iudgjQ9-56" value="" style="endArrow=classic;html=1;rounded=0;fontFamily=Comic Sans MS;fontSize=12;fontColor=#000000;strokeWidth=1;entryX=0;entryY=0.5;entryDx=0;entryDy=0;exitX=1;exitY=0.5;exitDx=0;exitDy=0;" edge="1" parent="1" source="iR2uSwWQthym9iudgjQ9-40" target="iR2uSwWQthym9iudgjQ9-51">
          <mxGeometry width="50" height="50" relative="1" as="geometry">
            <mxPoint x="292" y="930" as="sourcePoint" />
            <mxPoint x="342" y="880" as="targetPoint" />
          </mxGeometry>
        </mxCell>
        <mxCell id="iR2uSwWQthym9iudgjQ9-59" value="" style="curved=1;endArrow=classic;html=1;rounded=0;fontFamily=Comic Sans MS;fontSize=12;fontColor=#000000;strokeWidth=1;exitX=1;exitY=0.5;exitDx=0;exitDy=0;entryX=1;entryY=1;entryDx=0;entryDy=0;" edge="1" parent="1" source="iR2uSwWQthym9iudgjQ9-43" target="iR2uSwWQthym9iudgjQ9-44">
          <mxGeometry width="50" height="50" relative="1" as="geometry">
            <mxPoint x="342" y="1070" as="sourcePoint" />
            <mxPoint x="392" y="1020" as="targetPoint" />
            <Array as="points">
              <mxPoint x="342" y="1040" />
              <mxPoint x="472" y="1070" />
              <mxPoint x="692" y="1080" />
              <mxPoint x="742" y="1000" />
            </Array>
          </mxGeometry>
        </mxCell>
        <mxCell id="iR2uSwWQthym9iudgjQ9-61" value="" style="curved=1;endArrow=classic;html=1;rounded=0;fontFamily=Comic Sans MS;fontSize=12;fontColor=#000000;strokeWidth=1;entryX=0;entryY=1;entryDx=0;entryDy=0;exitX=1;exitY=0.5;exitDx=0;exitDy=0;" edge="1" parent="1" source="iR2uSwWQthym9iudgjQ9-42" target="iR2uSwWQthym9iudgjQ9-46">
          <mxGeometry width="50" height="50" relative="1" as="geometry">
            <mxPoint x="322" y="1100" as="sourcePoint" />
            <mxPoint x="372" y="1050" as="targetPoint" />
            <Array as="points">
              <mxPoint x="332" y="970" />
              <mxPoint x="422" y="1010" />
              <mxPoint x="512" y="990" />
              <mxPoint x="512" y="920" />
            </Array>
          </mxGeometry>
        </mxCell>
      </root>
    </mxGraphModel>
  </diagram>
</mxfile>
